<?xml version="1.0" encoding="UTF-8" standalone="no"?>
<!-- Created with Inkscape (http://www.inkscape.org/) -->

<svg
   version="1.1"
   id="svg1"
   width="1400"
   height="721"
   viewBox="0 0 1400 721"
   sodipodi:docname="Logo_hell_ohne_REA.svg"
   inkscape:version="1.3.2 (091e20e, 2023-11-25)"
   xml:space="preserve"
   xmlns:inkscape="http://www.inkscape.org/namespaces/inkscape"
   xmlns:sodipodi="http://sodipodi.sourceforge.net/DTD/sodipodi-0.dtd"
   xmlns="http://www.w3.org/2000/svg"
   xmlns:svg="http://www.w3.org/2000/svg"><sodipodi:namedview
     id="namedview1"
     pagecolor="#505050"
     bordercolor="#eeeeee"
     borderopacity="1"
     inkscape:showpageshadow="0"
     inkscape:pageopacity="0"
     inkscape:pagecheckerboard="0"
     inkscape:deskcolor="#d1d1d1"
     inkscape:zoom="0.20986922"
     inkscape:cx="717.11326"
     inkscape:cy="748.08493"
     inkscape:window-width="1440"
     inkscape:window-height="775"
     inkscape:window-x="0"
     inkscape:window-y="25"
     inkscape:window-maximized="0"
     inkscape:current-layer="svg1" /><defs
     id="defs1"><clipPath
       clipPathUnits="userSpaceOnUse"
       id="clipPath3"><path
         d="M 0,0 H 1024 V 1024 H 0 Z"
         transform="scale(1.3333333)"
         clip-rule="evenodd"
         id="path3-8" /></clipPath><clipPath
       clipPathUnits="userSpaceOnUse"
       id="clipPath1"><path
         d="M 1023.2929,-0.70710677 -0.70710677,1023.2929 0.70710677,1024.7072 1024.7072,0.70710677 Z"
         id="path1" /></clipPath><clipPath
       clipPathUnits="userSpaceOnUse"
       id="clipPath6"><path
         d="M 0,0 H 1024 V 1024 H 0 Z"
         transform="scale(1.3333333)"
         clip-rule="evenodd"
         id="path6" /></clipPath><clipPath
       clipPathUnits="userSpaceOnUse"
       id="clipPath4"><path
         d="M 1024.7072,1023.2929 0.70710677,-0.70710677 -0.70710677,0.70710677 1023.2929,1024.7072 Z"
         id="path4-8" /></clipPath><clipPath
       clipPathUnits="userSpaceOnUse"
       id="clipPath9"><path
         d="M 0,0 H 1024 V 1024 H 0 Z"
         transform="scale(1.3333333)"
         clip-rule="evenodd"
         id="path9" /></clipPath><clipPath
       clipPathUnits="userSpaceOnUse"
       id="clipPath7"><path
         d="M 0,0 H 1024 V 2 H 0 Z"
         transform="translate(0,-0.50000001)"
         clip-rule="evenodd"
         id="path7" /></clipPath><clipPath
       clipPathUnits="userSpaceOnUse"
       id="clipPath12"><path
         d="M 0,0 H 1024 V 1024 H 0 Z"
         transform="scale(1.3333333)"
         clip-rule="evenodd"
         id="path12-7" /></clipPath><clipPath
       clipPathUnits="userSpaceOnUse"
       id="clipPath10"><path
         d="M 0,0 H 1024 V 2 H 0 Z"
         transform="translate(0,-0.50000251)"
         clip-rule="evenodd"
         id="path10" /></clipPath><clipPath
       clipPathUnits="userSpaceOnUse"
       id="clipPath15"><path
         d="M 0,0 H 1024 V 1024 H 0 Z"
         transform="scale(1.3333333)"
         clip-rule="evenodd"
         id="path15" /></clipPath><clipPath
       clipPathUnits="userSpaceOnUse"
       id="clipPath13"><path
         d="M 0,0 H 1024 V 2 H 0 Z"
         transform="translate(0,-0.49997501)"
         clip-rule="evenodd"
         id="path13" /></clipPath><clipPath
       clipPathUnits="userSpaceOnUse"
       id="clipPath18"><path
         d="M 0,0 H 1024 V 1024 H 0 Z"
         transform="scale(1.3333333)"
         clip-rule="evenodd"
         id="path18" /></clipPath><clipPath
       clipPathUnits="userSpaceOnUse"
       id="clipPath16"><path
         d="M 0,0 H 1024 V 2 H 0 Z"
         transform="translate(0,-0.50000001)"
         clip-rule="evenodd"
         id="path16" /></clipPath><clipPath
       clipPathUnits="userSpaceOnUse"
       id="clipPath21"><path
         d="M 0,0 H 1024 V 1024 H 0 Z"
         transform="scale(1.3333333)"
         clip-rule="evenodd"
         id="path21" /></clipPath><clipPath
       clipPathUnits="userSpaceOnUse"
       id="clipPath19"><path
         d="M 0,0 H 1024 V 2 H 0 Z"
         transform="translate(0,-0.49999751)"
         clip-rule="evenodd"
         id="path19" /></clipPath><clipPath
       clipPathUnits="userSpaceOnUse"
       id="clipPath24"><path
         d="M 0,0 H 1024 V 1024 H 0 Z"
         transform="scale(1.3333333)"
         clip-rule="evenodd"
         id="path24" /></clipPath><clipPath
       clipPathUnits="userSpaceOnUse"
       id="clipPath22"><path
         d="M 0,0 H 1024 V 2 H 0 Z"
         transform="translate(0,-0.50000251)"
         clip-rule="evenodd"
         id="path22" /></clipPath><clipPath
       clipPathUnits="userSpaceOnUse"
       id="clipPath27"><path
         d="M 0,0 H 1024 V 1024 H 0 Z"
         transform="scale(1.3333333)"
         clip-rule="evenodd"
         id="path27" /></clipPath><clipPath
       clipPathUnits="userSpaceOnUse"
       id="clipPath25"><path
         d="M 0,0 H 1024 V 2 H 0 Z"
         transform="translate(0,-0.50000001)"
         clip-rule="evenodd"
         id="path25" /></clipPath><clipPath
       clipPathUnits="userSpaceOnUse"
       id="clipPath30"><path
         d="M 0,0 H 1024 V 1024 H 0 Z"
         transform="scale(1.3333333)"
         clip-rule="evenodd"
         id="path30" /></clipPath><clipPath
       clipPathUnits="userSpaceOnUse"
       id="clipPath28"><path
         d="M 0,0 H 2 V 1024 H 0 Z"
         transform="translate(-0.50000001)"
         clip-rule="evenodd"
         id="path28" /></clipPath><clipPath
       clipPathUnits="userSpaceOnUse"
       id="clipPath33"><path
         d="M 0,0 H 1024 V 1024 H 0 Z"
         transform="scale(1.3333333)"
         clip-rule="evenodd"
         id="path33" /></clipPath><clipPath
       clipPathUnits="userSpaceOnUse"
       id="clipPath31"><path
         d="M 0,0 H 2 V 1024 H 0 Z"
         transform="translate(-0.49999751)"
         clip-rule="evenodd"
         id="path31" /></clipPath><clipPath
       clipPathUnits="userSpaceOnUse"
       id="clipPath36"><path
         d="M 0,0 H 1024 V 1024 H 0 Z"
         transform="scale(1.3333333)"
         clip-rule="evenodd"
         id="path36" /></clipPath><clipPath
       clipPathUnits="userSpaceOnUse"
       id="clipPath34"><path
         d="M 0,0 H 2 V 1024 H 0 Z"
         transform="translate(-0.50000251)"
         clip-rule="evenodd"
         id="path34" /></clipPath><clipPath
       clipPathUnits="userSpaceOnUse"
       id="clipPath39"><path
         d="M 0,0 H 1024 V 1024 H 0 Z"
         transform="scale(1.3333333)"
         clip-rule="evenodd"
         id="path39" /></clipPath><clipPath
       clipPathUnits="userSpaceOnUse"
       id="clipPath37"><path
         d="M 0,0 H 2 V 1024 H 0 Z"
         transform="translate(-0.50000001)"
         clip-rule="evenodd"
         id="path37" /></clipPath><clipPath
       clipPathUnits="userSpaceOnUse"
       id="clipPath42"><path
         d="M 0,0 H 1024 V 1024 H 0 Z"
         transform="scale(1.3333333)"
         clip-rule="evenodd"
         id="path42" /></clipPath><clipPath
       clipPathUnits="userSpaceOnUse"
       id="clipPath40"><path
         d="M 0,0 H 2 V 1024 H 0 Z"
         transform="translate(-0.50000251)"
         clip-rule="evenodd"
         id="path40" /></clipPath><clipPath
       clipPathUnits="userSpaceOnUse"
       id="clipPath45"><path
         d="M 0,0 H 1024 V 1024 H 0 Z"
         transform="scale(1.3333333)"
         clip-rule="evenodd"
         id="path45" /></clipPath><clipPath
       clipPathUnits="userSpaceOnUse"
       id="clipPath43"><path
         d="M 0,0 H 2 V 1024 H 0 Z"
         transform="translate(-0.49997501)"
         clip-rule="evenodd"
         id="path43" /></clipPath><clipPath
       clipPathUnits="userSpaceOnUse"
       id="clipPath48"><path
         d="M 0,0 H 1024 V 1024 H 0 Z"
         transform="scale(1.3333333)"
         clip-rule="evenodd"
         id="path48" /></clipPath><clipPath
       clipPathUnits="userSpaceOnUse"
       id="clipPath46"><path
         d="M 0,0 H 2 V 1024 H 0 Z"
         transform="translate(-0.50000001)"
         clip-rule="evenodd"
         id="path46" /></clipPath><clipPath
       clipPathUnits="userSpaceOnUse"
       id="clipPath51"><path
         d="M 0,0 H 1024 V 1024 H 0 Z"
         transform="scale(1.3333333)"
         clip-rule="evenodd"
         id="path51" /></clipPath><clipPath
       clipPathUnits="userSpaceOnUse"
       id="clipPath49"><path
         d="M 411,2 C 636.8847,2 820,185.11528 820,411 820,636.8847 636.8847,820 411,820 185.11528,820 2,636.8847 2,411 2,185.11528 185.11528,2 411,2 Z m 0,-2 C 184.01071,0 0,184.01071 0,411 0,637.98926 184.01071,822 411,822 637.98926,822 822,637.98926 822,411 822,184.01071 637.98926,0 411,0 Z"
         transform="translate(-1,-1)"
         id="path49" /></clipPath><clipPath
       clipPathUnits="userSpaceOnUse"
       id="clipPath54"><path
         d="M 0,0 H 1024 V 1024 H 0 Z"
         transform="scale(1.3333333)"
         clip-rule="evenodd"
         id="path54" /></clipPath><clipPath
       clipPathUnits="userSpaceOnUse"
       id="clipPath52"><path
         d="M 257,2 C 397.8327,2 512,116.16728 512,257 512,397.8327 397.8327,512 257,512 116.16728,512 2,397.8327 2,257 2,116.16728 116.16728,2 257,2 Z m 0,-2 C 115.06271,0 0,115.06271 0,257 0,398.93729 115.06271,514 257,514 398.93729,514 514,398.93729 514,257 514,115.06271 398.93729,0 257,0 Z"
         transform="translate(-0.99999752,-0.99999752)"
         id="path52" /></clipPath><clipPath
       clipPathUnits="userSpaceOnUse"
       id="clipPath57"><path
         d="M 0,0 H 1024 V 1024 H 0 Z"
         transform="scale(1.3333333)"
         clip-rule="evenodd"
         id="path57" /></clipPath><clipPath
       clipPathUnits="userSpaceOnUse"
       id="clipPath55"><path
         d="m 103,2 c 55.78072,0 101,45.219284 101,101 0,55.78072 -45.21928,101 -101,101 C 47.219284,204 2,158.78072 2,103 2,47.219284 47.219284,2 103,2 Z m 0,-2 C 46.114716,0 0,46.114716 0,103 0,159.88528 46.114716,206 103,206 159.88528,206 206,159.88528 206,103 206,46.114716 159.88528,0 103,0 Z"
         transform="translate(-1.0000025,-1.0000025)"
         id="path55" /></clipPath></defs><g
     id="g4"
     transform="matrix(1.4395528,0,0,1.4395528,-298.53064,-37.164632)"><g
       id="g12"
       style="fill:#000000;fill-opacity:1;stroke-width:1.00157;stroke-dasharray:none"
       transform="matrix(1.207104,0,0,1.2306566,177.09207,1.4859929)"><path
         id="path3"
         style="fill:#000000;fill-opacity:1;fill-rule:nonzero;stroke:none;stroke-width:1.00157;stroke-dasharray:none"
         d="m 428.80374,30.54448 c -3.25509,0.0483 -6.44981,0.13457 -9.65895,0.27951 -9.84357,0.43486 -19.76517,1.38623 -29.46605,2.67166 -24.83427,3.35595 -49.1846,8.85697 -73.47736,14.90448 -11.85241,2.96009 -23.75729,6.10702 -35.47967,9.28107 -12.01083,3.31943 -23.76808,7.26643 -35.54641,11.37098 -18.33655,6.46847 -36.52596,13.3877 -54.34067,21.18824 -8.62196,3.83282 -17.23381,7.76712 -25.33452,12.62881 -3.04494,1.90898 -6.20806,3.86978 -8.34489,6.83322 -6.42782,7.88253 -12.57234,15.99995 -19.31082,23.62501 -2.10789,2.29304 -4.18564,4.71069 -6.85121,6.37522 -4.10833,2.01439 -8.83926,2.85727 -13.36509,2.0128 -4.79453,-0.8161 -9.14683,-3.16465 -13.16466,-5.81127 -1.74967,-1.07787 -3.53775,-2.08044 -5.294471,-2.99254 -1.50651,-0.77465 -3.01906,-1.5118 -4.49382,-2.17148 -1.90585,-0.85644 -3.84485,-1.63946 -5.81477,-2.33633 -0.68454,-0.22881 -1.65217,-0.56356 -2.46222,-0.79334 -2.11077,-0.5663 -4.30845,-1.23701 -6.51239,-0.92932 1.00394,2.75045 2.70238,5.18076 4.24772,7.64777 5.74847,8.67788 12.07442,16.95549 18.438121,25.18687 1.63906,2.09837 3.27783,4.19671 4.93525,6.2806 -3.27596,6.17816 -5.81632,12.72551 -7.873041,19.40234 -0.14578,0.48204 -0.35799,1.18562 -0.50809,1.72696 -1.16085,4.19312 -2.39515,8.45528 -2.27645,12.85037 0.0937,6.91095 2.06578,13.66609 4.804071,19.96564 0.42712,0.96752 0.98222,2.15954 1.50955,3.19286 0.48912,0.99128 1.042,1.94879 1.58224,2.91261 -4.996751,12.10925 -9.994941,24.21792 -14.994141,36.32617 -2.15212,3.05502 -4.13074,6.41177 -4.73432,10.15267 -0.28905,1.6963 0.11154,3.71551 1.7051,4.64564 2.83817,1.54632 5.68355,3.44178 9.00772,3.64341 3.98701,0.26255 7.907541,-0.86756 11.644551,-2.13508 6.05599,-2.34236 11.15613,-6.53648 15.90625,-10.86328 8.34848,-7.79598 15.6812,-16.5851 23.02598,-25.30928 10.80397,-12.86944 21.36355,-26.02193 33.54296,-37.64218 4.05734,-3.93478 8.46259,-7.52541 13.28816,-10.48038 7.81534,-4.80776 16.47884,-8.47713 25.61165,-9.7498 3.55762,-0.44124 7.20787,-0.57055 10.74182,0.1013 3.72616,0.94579 6.5241,3.99837 8.12609,7.37484 2.9026,6.00539 3.42737,12.75477 4.55256,19.23612 0.45686,3.3176 -1.18395,6.45885 -2.88567,9.18372 -3.75788,5.70938 -8.68212,10.52425 -13.64543,15.1764 -2.03102,1.9279 -4.21061,3.69828 -6.23744,5.62601 -7.95206,8.53656 -15.92668,17.06427 -24.33268,25.15847 -2.26953,2.2284 -4.70655,4.27023 -7.1675,6.28023 -4.62555,4.02601 -8.76884,8.72911 -11.62441,14.18517 -2.49325,5.38667 -4.78461,10.94634 -5.85937,16.81055 -0.3444,2.39616 -0.70845,5.03623 0.44486,7.27586 0.83891,1.52564 2.73947,1.67415 4.24485,2.09992 2.64462,0.61439 5.7474,0.73798 7.95434,-1.10882 2.56826,-2.15611 3.91044,-5.35182 5.15087,-8.3822 1.76338,-4.37652 2.03375,-9.22922 4.12109,-13.48632 2.01085,-4.14593 5.7888,-7.05275 9.68499,-9.31883 6.82794,-4.29178 13.03095,-9.48757 19.11854,-14.75415 2.53571,-2.2149 4.75021,-3.14522 8.43336,-6.02229 6.02299,-2.322 8.34309,-2.97125 12.9872,-4.08122 6.25699,-1.45756 12.46144,-2.8421 18.67423,-4.51982 3.75932,-1.11974 7.48408,-2.35622 11.23692,-3.49966 5.19123,-1.66121 10.45538,-3.24792 15.3122,-5.76127 0.38766,-0.26534 2.58146,-1.53449 2.69876,-1.87641 -4.0577,-4.5911 -6.66223,-6.96517 -10.62525,-11.64667 -1.75341,-1.8041 -2.48409,-3.21231 -0.71906,-4.86438 2.99243,-1.8894 4.87712,1.16431 7.45116,3.68491 1.7057,1.72903 3.6741,3.39919 5.51133,4.99472 2.43295,2.33571 5.13341,4.55973 7.5391,6.76576 5.54307,5.79789 12.06795,10.26335 18.53018,14.98687 4.65696,3.89233 9.74252,7.22636 14.61101,10.84149 7.10586,5.23173 14.16046,10.69174 19.93673,17.41149 3.71067,4.38251 6.97606,9.51909 7.62642,15.345 0.42001,3.5022 -0.60812,6.93505 -1.32783,10.32555 -1.66799,6.92052 -4.16668,13.91264 -9.00533,19.2827 -1.9744,2.24962 -4.41473,4.01902 -6.96622,5.55501 -3.56475,2.50782 -6.16933,6.57647 -6.47797,10.97151 -0.009,1.20466 0.0733,2.8659 1.35156,3.41992 0.85546,0.21708 1.55849,0.2108 2.40235,0.32227 0.73887,0.0679 1.76743,0.14897 2.62655,0.18706 2.10734,0.10611 4.4753,0.11609 6.68919,0.003 3.89003,-0.18261 7.78535,-0.6143 11.57098,-1.55146 0.60013,-0.15959 1.50619,-0.40464 2.2059,-0.66856 1.38014,-0.41379 2.59081,-1.27036 3.38359,-2.48062 2.58565,-3.65862 4.20108,-7.89659 5.63231,-12.11217 0.89387,-2.70884 1.66961,-5.65083 2.18835,-8.34021 0.76054,-4.23867 1.19484,-8.53345 1.39649,-12.83399 0.0191,-0.50514 0.0481,-1.21178 0.0565,-1.75963 0.24021,-10.49946 -1.26311,-21.22653 -5.74931,-30.80115 -1.71934,-3.59244 -3.84955,-7.08246 -6.89789,-9.70509 -4.68073,-4.3322 -8.75674,-9.40998 -11.39353,-15.24944 -2.33187,-4.9768 -3.61482,-10.37415 -4.32622,-15.80498 -1.0326,-5.08195 -3.43811,-9.74773 -5.87159,-14.28173 -2.40686,-4.45848 -5.21536,-8.68456 -7.66837,-13.11533 -0.71776,-1.16848 -0.92022,-2.63594 -0.33922,-3.90438 1.14185,-2.49836 3.72355,-3.86031 6.07807,-5.01324 5.99487,-2.69815 12.4287,-4.22789 18.81893,-5.66627 8.7501,-1.88785 17.65743,-3.33189 26.50941,-4.36282 20.50398,-2.57285 40.86609,-6.34393 60.96156,-11.25553 7.89816,-1.93306 15.9783,-4.12061 23.78265,-6.44649 8.15697,-2.45766 16.20187,-5.0403 24.14305,-8.11166 l 3.35298,-1.31718 c -3.15119,10.31066 -5.8661,20.76095 -7.92774,31.3457 -1.12421,5.84977 -2.07872,11.89899 -2.49916,17.90404 -0.1668,1.62063 -0.0722,3.26705 -0.27334,4.87743 -1.78669,8.60925 -3.98373,17.11497 -5.63834,25.7515 -1.09594,5.6759 -1.66973,11.48556 -1.18452,17.26185 0.49836,9.21877 -0.69566,18.53017 -3.46323,27.33604 -2.28125,7.33915 -6.39266,13.93128 -10.75958,20.1915 -3.48117,4.85578 -7.19536,9.59946 -11.64862,13.60928 -2.6526,2.63768 -4.81792,6.00581 -8.39362,7.50196 -3.01545,1.343 -6.40056,1.35954 -9.63247,1.18992 -5.73981,1.07252 -11.27792,3.33259 -16.09325,6.6404 -1.83162,1.35034 -3.78085,2.82523 -4.70879,4.97046 -0.31594,0.62321 10e-4,1.34832 0.66278,1.55621 2.61291,1.22204 5.53813,1.52588 8.3692,1.88339 2.19506,0.2377 4.45016,0.3711 6.56733,0.44318 6.29481,0.16415 12.63719,0.0296 18.85609,-1.03561 1.68866,-0.31213 3.41702,-0.72084 4.78695,-1.81819 5.80985,-4.06463 11.29335,-8.57176 16.9601,-12.82865 3.54026,-2.62645 7.02292,-5.37917 10.89298,-7.51239 2.294,-0.90288 3.41701,-3.29499 4.30285,-5.4317 2.14291,-5.5869 3.22921,-11.50941 5.22702,-17.1456 2.54222,-7.65271 7.48076,-14.19376 12.66012,-20.25776 4.30977,-5.09323 9.06288,-9.80988 13.12279,-15.11265 1.67966,-2.2942 3.04527,-4.80017 4.73866,-7.08702 6.94463,-9.72435 14.45221,-19.03382 22.11626,-28.19728 5.78803,-6.85477 11.68579,-13.63383 18.10287,-19.91184 5.06399,-5.18867 9.64966,-10.82458 13.96408,-16.64565 0.9705,-1.33396 2.08097,-2.83817 3.07112,-4.26263 9.11879,-12.97809 18.9583,-25.36211 26.18821,-39.47137 1.84312,-3.57554 2.39096,-7.21572 3.46333,-12.19569 0.63873,2.1528 0.49767,4.03653 0.90497,6.25096 -1.4735,4.91454 -3.68202,9.00573 -5.54112,13.94715 -0.043,0.50034 4.54226,3.56629 4.77775,4.02159 3.47222,4.61383 8.20908,7.52334 12.91825,10.80909 6.30382,4.30924 13.21289,7.77871 20.52804,10.0005 0.73732,0.20945 1.75883,0.51189 2.61782,0.71956 0.54198,0.13257 1.15925,0.28181 1.71832,0.40277 2.70721,0.60325 5.69174,0.99345 8.32011,1.10814 1.8154,0.0713 3.63458,0.0649 5.3789,-0.002 0.84251,-0.0394 1.95725,-0.0993 2.90498,-0.17859 11.89949,-0.99197 23.9345,-3.39779 35.09331,-7.52959 13.51311,-5.07867 27.7501,-10.83875 40.14444,-18.22646 8.56075,-5.14859 16.46481,-11.07111 24.24452,-17.46441 4.78382,-4.00018 8.36228,-9.57958 11.99361,-14.68884 0.95879,-1.49445 3.10024,-6.43516 3.30199,-8.23495 -0.21936,-4.23752 -0.086,-3.70941 -1.47972,-4.68888 -2.47087,-0.60335 -4.52124,1.04977 -6.54045,2.76002 -3.90256,3.51571 -5.72781,5.10804 -10.39535,8.80809 -10.19831,7.06084 -18.19114,12.39496 -28.56293,17.55752 -11.06155,5.47682 -19.6218,8.31546 -31.72585,10.8763 -8.13984,1.65265 -15.81506,1.26909 -23.97968,-0.64523 -3.93064,-0.93057 -9.4566,-3.11448 -12.69687,-5.54176 -10.48371,-11.60292 -21.5726,-19.75174 -29.56222,-33.16224 -4.91372,-8.10543 -9.4522,-16.44896 -14.79214,-24.28908 -2.38378,-3.40664 -4.96162,-6.6728 -7.56092,-9.91635 -0.60939,-0.73607 -1.38292,-1.68768 -2.07122,-2.49676 -3.15226,-3.7162 -6.4862,-7.29274 -10.1651,-10.49543 -0.72651,-0.63254 -1.67402,-1.42648 -2.5156,-2.08715 -1.47282,-1.1616 -2.99574,-2.25942 -4.56839,-3.28199 -0.84385,-0.55349 -1.93356,-1.22163 -2.89969,-1.77553 -4.76649,-2.7418 -9.99413,-4.85206 -15.15109,-6.51939 -12.19808,-3.87497 -24.80913,-6.19728 -37.33981,-8.69959 -22.33158,-4.36716 -44.72516,-8.621 -67.37916,-11.15723 -5.36648,-0.59486 -10.76178,-1.08232 -16.0959,-1.44156 -8.13161,-0.54089 -16.15256,-0.77516 -24.31794,-0.68014 z" /><path
         id="path4"
         d="m 678.2698,234.99335 c -22.104,-16.57867 -37.03704,-33.63053 -37.03704,-33.63053 -5.25066,-4.19867 -16.31757,-16.30114 -16.31757,-16.30114 0,0 -7.54123,-6.76349 -11.42656,-9.40882 -3.88,-2.64533 -12.30683,-8.70084 -12.30683,-8.70084 0,0 -11.80273,16.40633 -20.6414,29.505 -7.81932,7.98201 -12.60426,13.25619 -12.60426,13.25619 0,0 15.37145,11.42117 30.21545,18.97317 19.20266,9.76667 31.13808,19.19015 56.98608,21.60215 3.61067,0.33867 5.58546,23.24615 6.61079,37.94482 0.92267,13.156 -2.56266,26.56266 -6.56266,29.61466 -4.004,3.04667 -7.68134,13.54667 -2.952,18.796 6.776,7.532 28.83707,-10.52152 29.20773,-13.22952 0.656,-4.76 1.11493,-11.92648 1.72427,-18.04648 0.61466,-6.12 1.0266,-21.62182 0.35993,-32.61649"
         style="fill:#000000;fill-opacity:1;fill-rule:nonzero;stroke:none;stroke-width:1.00157;stroke-dasharray:none" /></g><rect
       style="opacity:0.991914;fill:#000000;fill-opacity:1;stroke:none;stroke-width:16.7033;stroke-linecap:round;stroke-linejoin:round;stroke-dasharray:none;stroke-opacity:1;paint-order:stroke fill markers"
       id="rect12"
       width="965.17303"
       height="34.259697"
       x="212.64861"
       y="475.76135" /></g><g
     id="g3"
     transform="translate(1687.302,12.371201)"><g
       opacity="0.4975"
       id="g2"
       clip-path="url(#clipPath3)"><path
         d="M 0,0 H 1024 V 1024 H 0 Z"
         style="fill:#0a84ff;fill-opacity:1;fill-rule:nonzero;stroke:none"
         transform="scale(1.3333333)"
         clip-path="url(#clipPath1)"
         id="path2" /></g><g
       opacity="0.4975"
       id="g5"
       clip-path="url(#clipPath6)"><path
         d="M 0,0 H 1024 V 1024 H 0 Z"
         style="fill:#0a84ff;fill-opacity:1;fill-rule:nonzero;stroke:none"
         transform="scale(1.3333333)"
         clip-path="url(#clipPath4)"
         id="path5" /></g><g
       opacity="0.4975"
       id="g8"
       clip-path="url(#clipPath9)"><path
         d="M 0,-1 H 1024 V 2 H 0 Z"
         style="fill:#0a84ff;fill-opacity:1;fill-rule:nonzero;stroke:none"
         transform="matrix(1.3333333,0,0,1.3333333,0,682)"
         clip-path="url(#clipPath7)"
         id="path8" /></g><g
       opacity="0.4975"
       id="g11"
       clip-path="url(#clipPath12)"><path
         d="M 0,-1 H 1024 V 2 H 0 Z"
         style="fill:#0a84ff;fill-opacity:1;fill-rule:nonzero;stroke:none"
         transform="matrix(1.3333333,0,0,1.3333333,0,852.66667)"
         clip-path="url(#clipPath10)"
         id="path11" /></g><g
       opacity="0.4975"
       id="g14"
       clip-path="url(#clipPath15)"><path
         d="M 0,-1 H 1024 V 2 H 0 Z"
         style="fill:#0a84ff;fill-opacity:1;fill-rule:nonzero;stroke:none"
         transform="matrix(1.3333333,0,0,1.3333333,0,1023.3333)"
         clip-path="url(#clipPath13)"
         id="path14" /></g><g
       opacity="0.4975"
       id="g17"
       clip-path="url(#clipPath18)"><path
         d="M 0,-1 H 1024 V 2 H 0 Z"
         style="fill:#0a84ff;fill-opacity:1;fill-rule:nonzero;stroke:none"
         transform="matrix(1.3333333,0,0,1.3333333,0,1194)"
         clip-path="url(#clipPath16)"
         id="path17" /></g><g
       opacity="0.4975"
       id="g20"
       clip-path="url(#clipPath21)"><path
         d="M 0,-1 H 1024 V 2 H 0 Z"
         style="fill:#0a84ff;fill-opacity:1;fill-rule:nonzero;stroke:none"
         transform="matrix(1.3333333,0,0,1.3333333,0,511.33333)"
         clip-path="url(#clipPath19)"
         id="path20" /></g><g
       opacity="0.4975"
       id="g23"
       clip-path="url(#clipPath24)"><path
         d="M 0,-1 H 1024 V 2 H 0 Z"
         style="fill:#0a84ff;fill-opacity:1;fill-rule:nonzero;stroke:none"
         transform="matrix(1.3333333,0,0,1.3333333,0,340.66667)"
         clip-path="url(#clipPath22)"
         id="path23" /></g><g
       opacity="0.4975"
       id="g26"
       clip-path="url(#clipPath27)"><path
         d="M 0,-1 H 1024 V 2 H 0 Z"
         style="fill:#0a84ff;fill-opacity:1;fill-rule:nonzero;stroke:none"
         transform="matrix(1.3333333,0,0,1.3333333,0,170)"
         clip-path="url(#clipPath25)"
         id="path26" /></g><g
       opacity="0.4975"
       id="g29"
       clip-path="url(#clipPath30)"><path
         d="M -1,0 H 2 V 1024 H -1 Z"
         style="fill:#0a84ff;fill-opacity:1;fill-rule:nonzero;stroke:none"
         transform="matrix(1.3333333,0,0,1.3333333,682,0)"
         clip-path="url(#clipPath28)"
         id="path29" /></g><g
       opacity="0.4975"
       id="g32"
       clip-path="url(#clipPath33)"><path
         d="M -1,0 H 2 V 1024 H -1 Z"
         style="fill:#0a84ff;fill-opacity:1;fill-rule:nonzero;stroke:none"
         transform="matrix(1.3333333,0,0,1.3333333,511.33333,0)"
         clip-path="url(#clipPath31)"
         id="path32" /></g><g
       opacity="0.4975"
       id="g35"
       clip-path="url(#clipPath36)"><path
         d="M -1,0 H 2 V 1024 H -1 Z"
         style="fill:#0a84ff;fill-opacity:1;fill-rule:nonzero;stroke:none"
         transform="matrix(1.3333333,0,0,1.3333333,340.66667,0)"
         clip-path="url(#clipPath34)"
         id="path35" /></g><g
       opacity="0.4975"
       id="g38"
       clip-path="url(#clipPath39)"><path
         d="M -1,0 H 2 V 1024 H -1 Z"
         style="fill:#0a84ff;fill-opacity:1;fill-rule:nonzero;stroke:none"
         transform="matrix(1.3333333,0,0,1.3333333,170,0)"
         clip-path="url(#clipPath37)"
         id="path38" /></g><g
       opacity="0.4975"
       id="g41"
       clip-path="url(#clipPath42)"><path
         d="M -1,0 H 2 V 1024 H -1 Z"
         style="fill:#0a84ff;fill-opacity:1;fill-rule:nonzero;stroke:none"
         transform="matrix(1.3333333,0,0,1.3333333,852.66667,0)"
         clip-path="url(#clipPath40)"
         id="path41" /></g><g
       opacity="0.4975"
       id="g44"
       clip-path="url(#clipPath45)"><path
         d="M -1,0 H 2 V 1024 H -1 Z"
         style="fill:#0a84ff;fill-opacity:1;fill-rule:nonzero;stroke:none"
         transform="matrix(1.3333333,0,0,1.3333333,1023.3333,0)"
         clip-path="url(#clipPath43)"
         id="path44" /></g><g
       opacity="0.4975"
       id="g47"
       clip-path="url(#clipPath48)"><path
         d="M -1,0 H 2 V 1024 H -1 Z"
         style="fill:#0a84ff;fill-opacity:1;fill-rule:nonzero;stroke:none"
         transform="matrix(1.3333333,0,0,1.3333333,1194,0)"
         clip-path="url(#clipPath46)"
         id="path47" /></g><g
       opacity="0.4975"
       id="g50"
       clip-path="url(#clipPath51)"><path
         d="M -1,-1 H 821 V 821 H -1 Z"
         style="fill:#0a84ff;fill-opacity:1;fill-rule:nonzero;stroke:none"
         transform="matrix(1.3333333,0,0,1.3333333,136,136)"
         clip-path="url(#clipPath49)"
         id="path50" /></g><g
       opacity="0.4975"
       id="g53"
       clip-path="url(#clipPath54)"><path
         d="M -1,-1 H 513 V 513 H -1 Z"
         style="fill:#0a84ff;fill-opacity:1;fill-rule:nonzero;stroke:none"
         transform="matrix(1.3333333,0,0,1.3333333,341.33333,341.33333)"
         clip-path="url(#clipPath52)"
         id="path53" /></g><g
       opacity="0.4975"
       id="g56"
       clip-path="url(#clipPath57)"><path
         d="M -1,-1 H 205 V 205 H -1 Z"
         style="fill:#0a84ff;fill-opacity:1;fill-rule:nonzero;stroke:none"
         transform="matrix(1.3333333,0,0,1.3333333,546.66667,546.66667)"
         clip-path="url(#clipPath55)"
         id="path56" /></g></g></svg>
